<svg id="visual" viewBox="0 0 902 450" width="902" height="450" xmlns="http://www.w3.org/2000/svg" xmlns:xlink="http://www.w3.org/1999/xlink" version="1.1"><rect x="0" y="0" width="902" height="450" fill="#2C1F47"></rect><defs><linearGradient id="grad1_0" x1="50.1%" y1="100%" x2="100%" y2="0%"><stop offset="9.911111111111115%" stop-color="#fbae3c" stop-opacity="1"></stop><stop offset="90.08888888888887%" stop-color="#fbae3c" stop-opacity="1"></stop></linearGradient></defs><defs><linearGradient id="grad1_1" x1="50.1%" y1="100%" x2="100%" y2="0%"><stop offset="9.911111111111115%" stop-color="#fbae3c" stop-opacity="1"></stop><stop offset="90.08888888888887%" stop-color="#b74661" stop-opacity="1"></stop></linearGradient></defs><defs><linearGradient id="grad1_2" x1="50.1%" y1="100%" x2="100%" y2="0%"><stop offset="9.911111111111115%" stop-color="#2c1f47" stop-opacity="1"></stop><stop offset="90.08888888888887%" stop-color="#b74661" stop-opacity="1"></stop></linearGradient></defs><defs><linearGradient id="grad2_0" x1="0%" y1="100%" x2="49.9%" y2="0%"><stop offset="9.911111111111115%" stop-color="#fbae3c" stop-opacity="1"></stop><stop offset="90.08888888888887%" stop-color="#fbae3c" stop-opacity="1"></stop></linearGradient></defs><defs><linearGradient id="grad2_1" x1="0%" y1="100%" x2="49.9%" y2="0%"><stop offset="9.911111111111115%" stop-color="#b74661" stop-opacity="1"></stop><stop offset="90.08888888888887%" stop-color="#fbae3c" stop-opacity="1"></stop></linearGradient></defs><defs><linearGradient id="grad2_2" x1="0%" y1="100%" x2="49.9%" y2="0%"><stop offset="9.911111111111115%" stop-color="#b74661" stop-opacity="1"></stop><stop offset="90.08888888888887%" stop-color="#2c1f47" stop-opacity="1"></stop></linearGradient></defs><g transform="translate(902, 450)"><path d="M-225 0C-224.3 -24.3 -223.5 -48.6 -214 -69.5C-204.5 -90.4 -186.1 -107.9 -169.1 -122.8C-152.1 -137.8 -136.3 -150.1 -120.5 -165.8C-104.7 -181.6 -88.7 -200.7 -68.6 -211.1C-48.5 -221.6 -24.2 -223.3 0 -225L0 0Z" fill="#732f5f"></path><path d="M-150 0C-149.5 -16.2 -149 -32.4 -142.7 -46.4C-136.3 -60.3 -124.1 -72 -112.7 -81.9C-101.4 -91.8 -90.9 -100.1 -80.3 -110.6C-69.8 -121.1 -59.1 -133.8 -45.7 -140.8C-32.3 -147.7 -16.2 -148.9 0 -150L0 0Z" fill="#e87251"></path><path d="M-75 0C-74.8 -8.1 -74.5 -16.2 -71.3 -23.2C-68.2 -30.1 -62 -36 -56.4 -40.9C-50.7 -45.9 -45.4 -50 -40.2 -55.3C-34.9 -60.5 -29.6 -66.9 -22.9 -70.4C-16.2 -73.9 -8.1 -74.4 0 -75L0 0Z" fill="#fbae3c"></path></g><g transform="translate(0, 0)"><path d="M225 0C223.6 23.9 222.2 47.7 214 69.5C205.8 91.3 190.8 111 173.9 126.4C157.1 141.7 138.5 152.8 121.1 166.7C103.6 180.5 87.4 197.1 67.4 207.3C47.4 217.5 23.7 221.3 0 225L0 0Z" fill="#732f5f"></path><path d="M150 0C149.1 15.9 148.1 31.8 142.7 46.4C137.2 60.9 127.2 74 116 84.2C104.8 94.5 92.4 101.9 80.7 111.1C69.1 120.3 58.2 131.4 44.9 138.2C31.6 145 15.8 147.5 0 150L0 0Z" fill="#e87251"></path><path d="M75 0C74.5 8 74.1 15.9 71.3 23.2C68.6 30.4 63.6 37 58 42.1C52.4 47.2 46.2 50.9 40.4 55.6C34.5 60.2 29.1 65.7 22.5 69.1C15.8 72.5 7.9 73.8 0 75L0 0Z" fill="#fbae3c"></path></g></svg>